<svg xmlns="http://www.w3.org/2000/svg" width="512" height="512" viewBox="0 0 512 512">
  <g id="グループ_286" data-name="グループ 286" transform="translate(-4633 -4515)">
    <g id="グループ_284" data-name="グループ 284" transform="translate(-1462 -1335)">
      <rect id="長方形_5" data-name="長方形 5" width="512" height="512" transform="translate(6095 5850)" fill="rgba(255,255,255,0)"/>
      <path id="Path" d="M70.324,80.336h88.707l28.421,109.81h87.667l28.729-109.81h87.887L337.788,378.124H290l-14.881-100.14H187.452L170.94,378.124H124.172Z" transform="translate(6122.886 5826.347)" fill="#fff" fill-rule="evenodd"/>
      <path id="パス_2" data-name="パス 2" d="M1583.525,1839.6c-1.236,3.021,13.9,20.231,18.33,24.648s10.949,6.594,21.778-2.444,21.944-25.283,21.16-28.3-19.877,9.066-33.121,13.687S1584.761,1836.581,1583.525,1839.6Z" transform="translate(4739.755 4303.665)" fill="#fff"/>
      <path id="パス_10" data-name="パス 10" d="M-93.03-4.2a2.18,2.18,0,0,0,.63,1.61q.63.63,3.29.91V0h-28.84V-1.68q2.66-.28,3.29-.91a2.18,2.18,0,0,0,.63-1.61V-30.1h-36.4V-4.2a2.18,2.18,0,0,0,.63,1.61q.63.63,3.29.91V0h-28.84V-1.68q2.66-.28,3.29-.91a2.18,2.18,0,0,0,.63-1.61V-69.44a2.18,2.18,0,0,0-.63-1.61q-.63-.63-3.29-.91v-1.68h28.84v1.68q-2.66.28-3.29.91a2.18,2.18,0,0,0-.63,1.61v22.26h36.4V-69.44a2.18,2.18,0,0,0-.63-1.61q-.63-.63-3.29-.91v-1.68h28.84v1.68q-2.66.28-3.29.91a2.18,2.18,0,0,0-.63,1.61Zm82.18-33.74-1.96-.98a10.311,10.311,0,0,1,.35-1.12,3.568,3.568,0,0,0,.21-1.26q0-.84-1.75-1.96a20.242,20.242,0,0,0-4.48-2.03,53.233,53.233,0,0,0-6.16-1.61,34.569,34.569,0,0,0-6.93-.7,33.932,33.932,0,0,0-7.98.98,24.178,24.178,0,0,0-7.28,3.01,17.6,17.6,0,0,0-5.32,5.18,13.441,13.441,0,0,0-2.1,7.63,13.527,13.527,0,0,0,2.1,7.56,17.3,17.3,0,0,0,5.32,5.25,24.178,24.178,0,0,0,7.28,3.01,33.932,33.932,0,0,0,7.98.98,28.926,28.926,0,0,0,7.91-1.05,35.853,35.853,0,0,0,6.58-2.52,20.655,20.655,0,0,0,4.48-2.94q1.61-1.47,1.61-2.17v-1.26a4.247,4.247,0,0,0-.14-1.26l1.54-.98L3.71-7l-1.68.98Q.77-7.56-.21-7.56A10.941,10.941,0,0,0-3.22-6.3Q-5.67-5.04-9.73-3.43A56.769,56.769,0,0,1-19.32-.7,61.861,61.861,0,0,1-31.57.42,73.193,73.193,0,0,1-46.62-1.12,38.361,38.361,0,0,1-59.71-6.37a28.4,28.4,0,0,1-9.24-9.73,28.8,28.8,0,0,1-3.5-14.7,28.5,28.5,0,0,1,3.5-14.56,29.042,29.042,0,0,1,9.24-9.8,40.73,40.73,0,0,1,13.09-5.53,64.752,64.752,0,0,1,15.05-1.75,51.2,51.2,0,0,1,8.96.77q4.34.77,7.98,1.61t6.3,1.61a15.93,15.93,0,0,0,3.78.77,2.048,2.048,0,0,0,1.26-.42,3.564,3.564,0,0,0,.84-.84l1.68.56ZM50.47-47.6a22.894,22.894,0,0,0-7.42,1.19,19.649,19.649,0,0,0-6.16,3.36,15.081,15.081,0,0,0-4.13,5.25,16.057,16.057,0,0,0-1.47,7,16.057,16.057,0,0,0,1.47,7,15.081,15.081,0,0,0,4.13,5.25,19.649,19.649,0,0,0,6.16,3.36A22.894,22.894,0,0,0,50.47-14a22.712,22.712,0,0,0,7.49-1.19,19.815,19.815,0,0,0,6.09-3.36,15.081,15.081,0,0,0,4.13-5.25,16.057,16.057,0,0,0,1.47-7,16.057,16.057,0,0,0-1.47-7,15.081,15.081,0,0,0-4.13-5.25,19.815,19.815,0,0,0-6.09-3.36A22.712,22.712,0,0,0,50.47-47.6Zm0-14.84A49.938,49.938,0,0,1,63.7-60.62a37.6,37.6,0,0,1,12.04,5.67,29.769,29.769,0,0,1,8.75,9.87A28.848,28.848,0,0,1,87.85-30.8a28.752,28.752,0,0,1-3.36,14.35,29.288,29.288,0,0,1-8.75,9.73A36.219,36.219,0,0,1,63.7-1.26,53.843,53.843,0,0,1,50.47.42,53.843,53.843,0,0,1,37.24-1.26,36.219,36.219,0,0,1,25.2-6.72a29.288,29.288,0,0,1-8.75-9.73A28.752,28.752,0,0,1,13.09-30.8a28.848,28.848,0,0,1,3.36-14.28,29.769,29.769,0,0,1,8.75-9.87,37.6,37.6,0,0,1,12.04-5.67A49.938,49.938,0,0,1,50.47-62.44ZM174.37-4.2a1.847,1.847,0,0,0,1.12,1.96,10.575,10.575,0,0,0,2.8.56V0h-25.9V-1.68a14.05,14.05,0,0,0,2.59-.28q1.47-.28,1.47-1.54t-3.08-4.69q-3.08-3.43-7.91-8.47T134.61-27.93q-6.02-6.23-11.9-13.23l-.28.28V-4.2a1.865,1.865,0,0,0,1.05,1.96,9.3,9.3,0,0,0,2.59.56V0H102.13V-1.68a9.015,9.015,0,0,0,2.45-.56,1.865,1.865,0,0,0,1.05-1.96V-57.4a1.847,1.847,0,0,0-1.12-1.96,10.25,10.25,0,0,0-2.66-.56V-61.6h33.32v1.68a7.748,7.748,0,0,0-1.96.56q-.98.42-.98,1.96a15.638,15.638,0,0,0,2.31,2.87q2.31,2.59,5.95,6.51t8.12,8.68l8.96,9.52V-57.4a1.847,1.847,0,0,0-1.12-1.96,10.576,10.576,0,0,0-2.8-.56V-61.6h24.64v1.68a10.576,10.576,0,0,0-2.8.56,1.847,1.847,0,0,0-1.12,1.96Z" transform="translate(6350 6311)" fill="#fff"/>
    </g>
  </g>
</svg>
