<svg xmlns="http://www.w3.org/2000/svg" width="512" height="512" viewBox="0 0 512 512">
  <g id="グループ_277" data-name="グループ 277" transform="translate(-5838 -4565)">
    <rect id="長方形_4" data-name="長方形 4" width="512" height="512" transform="translate(5838 4565)" fill="rgba(219,184,219,0)"/>
    <g id="グループ_276" data-name="グループ 276" transform="translate(4514 3149.464)">
      <path id="Path" d="M70.324,80.336h95.165l30.491,117.8h94.049l30.821-117.8h94.285L357.26,399.8H305.993l-15.964-107.43H195.979L178.266,399.8H128.092Z" transform="translate(1341.085 1374)" fill="#fff" fill-rule="evenodd"/>
      <path id="パス_2" data-name="パス 2" d="M1583.53,1840.081c-1.326,3.241,14.907,21.7,19.665,26.442s11.746,7.074,23.363-2.621,23.541-27.124,22.7-30.365-21.324,9.726-35.532,14.683S1584.856,1836.84,1583.53,1840.081Z" transform="translate(-32.581 -131.936)" fill="#fff"/>
      <text id="Hcon" transform="translate(1580 1890.536)" fill="#fff" font-size="151" font-family="Copperplate-Bold, Copperplate" font-weight="700"><tspan x="-201.359" y="0">Hcon</tspan></text>
    </g>
  </g>
</svg>
