<svg xmlns="http://www.w3.org/2000/svg" width="73.05" height="22.675" viewBox="0 0 73.05 22.675">
  <path id="パス_5" data-name="パス 5" d="M17.85,8.55c.975-.075,1.95-.125,2.9-.15.85-.025,1.025-.275,1.025-.6,0-.425-.75-.825-1.825-.975a4.275,4.275,0,0,1-1.4.325l-.65.05a4.916,4.916,0,0,0,.05-.65.5.5,0,0,0-.125-.35c1.675-.125,2.775-.15,3.725-.15.7,0,.925-.25.925-.65,0-.475-.875-1.025-1.975-1.15a6.2,6.2,0,0,1-1.75.4l-.875.075c.3-.25.6-.55.925-.875.4-.325.5-.5.5-.75,0-.225-.2-.475-.575-.7a3.8,3.8,0,0,0-1.65-.7c-.175,0-.45.175-.45.35a1.583,1.583,0,0,1,.2.8,2.324,2.324,0,0,1-.1.675A13.066,13.066,0,0,1,16.25,4.9c-.85.1-1.8.2-2.775.3.225-.225.425-.475.625-.7a3.064,3.064,0,0,1,.5-.5.735.735,0,0,0,.35-.6c0-.25-.25-.55-.825-1A3.145,3.145,0,0,0,12.7,1.775c-.225,0-.275.15-.275.375a1.43,1.43,0,0,1,.025.35,2.13,2.13,0,0,1-.25.9A15.561,15.561,0,0,1,9.325,7.65a.52.52,0,0,0-.175.325.244.244,0,0,0,.275.25.843.843,0,0,0,.3-.1,14.359,14.359,0,0,0,1.65-1.075c.025.575.025,1.175.025,1.6a22.06,22.06,0,0,1-.2,4.05,2.06,2.06,0,0,0,.6,1.575c-.3,0-.4.1-.4.225a1.966,1.966,0,0,0,.175.55,5.085,5.085,0,0,1,.2,1.6c-2.825.225-6.025.525-9.2.825-.25.025-.375.075-.375.2,0,.175.1.425.8,1.175a.971.971,0,0,0,.825.375c2.25-.325,5.25-.6,7.95-.825l-.025,3.325c0,1.1.375,2.225,1.05,2.225s1.05-.8,1.075-2.2c.025-1.05.025-2.325.025-3.525,3.3-.25,4.85-.325,6.1-.325,1.025,0,2.075.025,3,.1.7-.025.9-.25.9-.65,0-.625-1.2-1.45-2.65-1.6a8.642,8.642,0,0,1-2.8.45c-1.25.05-2.8.15-4.55.275a4.536,4.536,0,0,1,.1-.55,1.654,1.654,0,0,0,.15-.55c0-.175-.15-.35-.625-.575a6.683,6.683,0,0,0-.85-.35.718.718,0,0,0,.4-.45c2.25-.225,4.525-.325,5.9-.35.925-.025,1.7-.05,2.375-.05.325,0,.625,0,.9.025q1.05,0,1.05-.6c0-.475-.8-1.05-1.925-1.275a6.223,6.223,0,0,1-1.75.325l-1.9.075.05-1.175c1.05-.075,2.075-.125,3.1-.15.85-.025,1.025-.275,1.025-.6,0-.425-.75-.825-1.825-.975a4.275,4.275,0,0,1-1.4.325L17.8,9.65ZM13.325,6.675c.875-.125,1.875-.225,2.6-.3a3.327,3.327,0,0,1,.125,1c-.925.075-1.9.175-2.75.25ZM16.05,9.8c-1,.075-1.975.15-2.775.225l.025-1.1c.925-.075,2-.2,2.75-.25Zm-2.8,1.55c.925-.1,1.875-.2,2.8-.275V12.25c-.95.05-1.875.125-2.825.2ZM7.175,2.775a7.252,7.252,0,0,0-2-.4c-.25,0-.375.075-.375.275a1.255,1.255,0,0,0,.325.625C6.175,4.6,7.2,5.375,7.85,5.375a.921.921,0,0,0,1-.9C8.85,3.75,8.35,3.225,7.175,2.775ZM6.45,9.05A.89.89,0,0,0,7.475,8.1c0-.525-.375-.975-1.1-1.275A8.157,8.157,0,0,0,3.8,6.35c-.4,0-.6.075-.6.275,0,.175.225.45.425.65C4.825,8.4,5.75,9.05,6.45,9.05Zm1.825,1.4a.981.981,0,0,0,.075-.35.291.291,0,0,0-.275-.325.688.688,0,0,0-.45.25A15.9,15.9,0,0,1,5.15,12.2a1.757,1.757,0,0,1-.75.25c-.25.025-.5.025-.875.025a.275.275,0,0,0-.3.3,1.093,1.093,0,0,0,.2.675c.875,1.275,1.6,1.825,2.075,1.825a.918.918,0,0,0,.725-.525c.15-.25.3-.6.475-.9A22.843,22.843,0,0,0,8.275,10.45Zm30.975,5.4a.888.888,0,0,0,.05-.25c0-.225-.125-.425-.625-.725a3.909,3.909,0,0,0-1.375-.65.307.307,0,0,0-.325.275,2.944,2.944,0,0,1,.1.625,1.684,1.684,0,0,1-.2.75,17.054,17.054,0,0,1-4.7,5.25c-.225.15-.325.25-.325.425a.257.257,0,0,0,.25.275,1.779,1.779,0,0,0,.525-.1,16.3,16.3,0,0,0,4.825-3.65c.7.475,1.4.975,2.075,1.5a13.023,13.023,0,0,1-5.4,2.925c-.225.075-.375.2-.375.35,0,.25.15.325.425.325a4.966,4.966,0,0,0,1-.125,12.8,12.8,0,0,0,5.65-2.5c1.025.8,2.15,1.7,3.45,2.825a1.724,1.724,0,0,0,1.325.6,13.8,13.8,0,0,0,3.85-.475c.3-.1.45-.175.45-.425,0-.15-.1-.3-.425-.425-.775-.3-1.675-.6-2.9-1a15.181,15.181,0,0,1-2.25-.875c-.675-.35-1.475-.8-2.325-1.3a11,11,0,0,0,1.15-1.425,2.927,2.927,0,0,1,.75-.8c.25-.15.325-.275.325-.45,0-.425-.7-1.2-1.925-1.6h.325c2.05,0,2.9-.275,2.9-.875,0-.2-.15-.425-.6-.875a9.889,9.889,0,0,0-1.575-1.2.482.482,0,0,0-.25-.075.2.2,0,0,0-.225.2l.025.125a7.4,7.4,0,0,1,.275,1.125,6.129,6.129,0,0,1-.8.05,6.74,6.74,0,0,1-4.875-2.1.575.575,0,0,0-.4-.15.2.2,0,0,0-.2.225.887.887,0,0,0,.15.4,6.261,6.261,0,0,0,5,3.125,1.4,1.4,0,0,1-.925.425Zm-.55.75a3.721,3.721,0,0,0,.775.4c.55-.075,1.375-.225,2.175-.35a13.046,13.046,0,0,1-1.225,1.9c-.725-.45-1.45-.9-2.175-1.375Zm.125-12.075L37.25,4.7a3.984,3.984,0,0,0-1.125-.325.294.294,0,0,0-.3.325,5.5,5.5,0,0,1,.35,1.875c.025.75.075,2.075.125,3.325l-2.1.225c-.15-.425-.475-.825-.675-.825-.15,0-.275.125-.275.375a3.305,3.305,0,0,1-.775,2.175,1.475,1.475,0,0,0-.4,1A1.064,1.064,0,0,0,33.125,14c.675,0,1.225-1.125,1.3-2.725,3.675-.5,8.975-.875,12.425-.975a7.29,7.29,0,0,1-.55,1.325.463.463,0,0,0-.05.175,2.451,2.451,0,0,0-.6-.5,4.35,4.35,0,0,0-2-.6c-.275,0-.35.05-.35.15a.55.55,0,0,0,.15.3c.575.65,1.025,1.125,1.5,1.7a1.069,1.069,0,0,0,.75.45.808.808,0,0,0,.825-.85,1.014,1.014,0,0,0-.125-.425.372.372,0,0,0,.15.025,8.955,8.955,0,0,0,2.425-.75c.425-.2.525-.375.525-.6,0-.25-.325-.575-.925-1.075a3.741,3.741,0,0,0-1.3-.75,1.773,1.773,0,0,1-.75.2c-.6.025-1.325.075-2.125.125.075-1.125.15-2.15.225-2.95a1.182,1.182,0,0,1,.25-.625.709.709,0,0,0,.15-.4c0-.175-.275-.5-.625-.75a2.264,2.264,0,0,0-1.2-.55,1.319,1.319,0,0,1-.8.25c-.575.05-1.375.125-2.2.225.3-.375.575-.75.875-1.125,1.7-.125,3.375-.25,4.75-.275.8-.025,1.05-.15,1.05-.55,0-.65-1.1-1.05-2.2-1.15a3.331,3.331,0,0,1-1.55.475c-2.225.2-5.175.45-8.425.675-.225,0-.35.05-.35.15,0,.2.15.375.375.675.325.425.55.55.75.55,1.05-.125,2.3-.25,3.625-.375Zm3.9,4.8-4.925.45V8.95c1.65-.175,3.3-.3,4.95-.4Zm.075-1.6a4.963,4.963,0,0,0-.725-.225,2.3,2.3,0,0,1-.725.2l-3.525.375V7.3c1.675-.15,3.325-.325,5-.4ZM42.85,6.1a3.521,3.521,0,0,0-.775-.25,2.3,2.3,0,0,1-.725.2l-3.5.35V5.675c2-.25,3.45-.375,5.025-.45ZM31.475,11.5a9.111,9.111,0,0,0,.125-.95c0-.25-.05-.425-.425-.925a5.8,5.8,0,0,0-.6-.7,27.88,27.88,0,0,0,1.8-3.1A13.483,13.483,0,0,1,33.25,4.2a1.068,1.068,0,0,0,.25-.65,1.086,1.086,0,0,0-.425-.625A4.121,4.121,0,0,0,31.025,1.9a.4.4,0,0,0-.425.375,1.627,1.627,0,0,1,.25.75,3.242,3.242,0,0,1-.15.925,25.535,25.535,0,0,1-4.4,8.6.519.519,0,0,0-.125.3.322.322,0,0,0,.3.3A.509.509,0,0,0,26.85,13a17.7,17.7,0,0,0,2.65-2.65,15.148,15.148,0,0,1,.05,1.7c0,1.9-.025,3.7-.125,6.575A15.946,15.946,0,0,1,29.1,21.1c0,1.05.775,2.1,1.325,2.1.625,0,.925-.45.95-1.825Zm10.375-.075a.488.488,0,0,0,.025-.175.178.178,0,0,0-.175-.2.4.4,0,0,0-.2.075,2.233,2.233,0,0,1-.7.35,5.075,5.075,0,0,1-.825-.425.673.673,0,0,0-.4-.175c-.1,0-.2.05-.2.3a2.1,2.1,0,0,0,.775,1.45,1.5,1.5,0,0,0,.9.35c.4,0,.55-.2.55-.625A5.885,5.885,0,0,1,41.85,11.425ZM34.725,13.45c-.525.475-.625.7-.625,1.125a.988.988,0,0,0,.975,1.075c.65,0,1.3-1.375,1.3-2.2,0-.925-.3-1.675-.5-1.675-.175,0-.25.075-.275.275A2.406,2.406,0,0,1,34.725,13.45ZM68,8.275c.875-.075,1.775-.125,2.675-.175.675-.025,1.025-.15,1.025-.625,0-.55-.925-1.05-1.75-1.2a3.42,3.42,0,0,1-1.175.375c-.525.1-1.125.175-1.775.25q.375-1.35.675-2.85a1.452,1.452,0,0,0,.275-.725.669.669,0,0,0-.3-.575,4.172,4.172,0,0,0-1.95-.825c-.225,0-.325.125-.325.275a1.99,1.99,0,0,0,.1.525,2.9,2.9,0,0,1,.075.8A8.35,8.35,0,0,1,65.4,5.15c-.125.675-.25,1.325-.4,2-1.125.1-2.3.2-3.425.275-.3.025-.325.1-.325.25,0,.175.175.45.6.975a.643.643,0,0,0,.5.275c.75-.1,1.5-.2,2.225-.275C64.4,9.175,64.2,9.675,64,10.2c-1.025.075-2.125.175-3.275.275-.4.025-.45.075-.45.2,0,.175.125.3.675.975a.774.774,0,0,0,.525.325c.575-.075,1.175-.175,1.75-.25a16.372,16.372,0,0,1-2.95,3.85.484.484,0,0,0-.15.325.315.315,0,0,0,.325.325.57.57,0,0,0,.275-.075,12.206,12.206,0,0,0,4.45-4.65c1.125-.125,2.225-.225,3.35-.3.95,1.425,1.9,2.85,3,4.45.2.275.325.375.625.375a10.7,10.7,0,0,0,2.6-.375c.25-.075.5-.175.5-.375,0-.175-.25-.35-.5-.5-.525-.375-.9-.6-1.425-1-.475-.375-1.15-.825-1.75-1.35-.375-.35-.8-.8-1.275-1.325.925-.025,1.85-.05,2.775-.05,1.025,0,1.15-.175,1.15-.6,0-.625-1.125-1.175-2.05-1.325a4.564,4.564,0,0,1-1.575.4c-.475.05-.975.1-1.5.175ZM66.675,8.4c.3.45.675,1.025.95,1.45l-1.7.15c.2-.525.425-1.05.6-1.575ZM57.85,19.9c-.45-.05-1.325-.175-1.85-.3a1.29,1.29,0,0,0-.275-.05c-.175,0-.275.1-.275.225a.86.86,0,0,0,.2.45c.4.55.925,1.15,1.475,1.8.55.675.9.9,1.3.9.325,0,.675-.325.975-1.125a5.933,5.933,0,0,0,.425-2.125c0-1.625-.05-5.1-.05-7.4v-1.65c0-1.5.025-2.75.125-4.85a2.333,2.333,0,0,1,.3-.825,1.257,1.257,0,0,0,.275-.65c0-.25-.175-.525-.575-.85a4.021,4.021,0,0,0-1.65-1,3.193,3.193,0,0,1-1.175.45c-.675.075-1.575.175-2.525.3a3.827,3.827,0,0,0-1.075-.325c-.2,0-.25.05-.25.225a1.46,1.46,0,0,0,.1.45c.175.525.25,1.3.25,4.15V9.2c0,5.475-.275,8.775-1.4,11.425a.586.586,0,0,0-.05.275.345.345,0,0,0,.325.375.727.727,0,0,0,.5-.3,13.57,13.57,0,0,0,2.4-7.075c.825-.075,1.675-.125,2.5-.15Zm-2.375-7.55c.075-1.075.1-2.15.1-3.25.775-.075,1.525-.1,2.275-.125v3.35a2.655,2.655,0,0,0-.625-.275,3.686,3.686,0,0,1-.875.2Zm2.375-4.8a2.14,2.14,0,0,0-.6-.275,3.686,3.686,0,0,1-.875.2L55.6,7.55V6.05a5.917,5.917,0,0,1,.075-1.45c.675-.075,1.375-.15,2.175-.2ZM65.725,20.4a.184.184,0,0,0-.2.2.6.6,0,0,0,.1.3,10.57,10.57,0,0,0,1.6,1.9,1.286,1.286,0,0,0,.65.35,1.483,1.483,0,0,0,.75-.35,4.665,4.665,0,0,0,1-1.6A18.3,18.3,0,0,0,70.7,17.675a2.969,2.969,0,0,1,.325-.975,1.123,1.123,0,0,0,.25-.625c0-.3-.4-.625-.925-1.075a2.88,2.88,0,0,0-1.125-.625,1.972,1.972,0,0,1-.875.325c-.35.05-.7.075-1.075.125l.225-.6c.3-.4.4-.575.4-.75,0-.25-.175-.45-.675-.725A3.7,3.7,0,0,0,65.7,12.2c-.25,0-.325.1-.325.3,0,.25.175.5.175.875a5.054,5.054,0,0,1-.15,1,6.7,6.7,0,0,1-.175.675c-.875.075-1.85.175-2.925.275-.25.025-.325.1-.325.2a2.521,2.521,0,0,0,.6,1,.589.589,0,0,0,.525.275c.55-.1,1.075-.2,1.625-.275A14.092,14.092,0,0,1,60.8,21.85a.3.3,0,0,0-.125.25.371.371,0,0,0,.4.35c2.7-1.275,4.275-3.025,5.65-6.2.725-.075,1.475-.125,2.25-.175A14.864,14.864,0,0,1,67.8,20.55a.353.353,0,0,1-.3.2,15.4,15.4,0,0,1-1.65-.325Zm5.85-15.675A.735.735,0,0,0,71.8,4.15a1.688,1.688,0,0,0-.6-.875,2.568,2.568,0,0,0-1.15-.75c-.2,0-.275.15-.275.425a1.275,1.275,0,0,1-.15.775,9.078,9.078,0,0,1-1.575,1.9.469.469,0,0,0-.175.325c0,.15.125.25.325.25a1.1,1.1,0,0,0,.25-.05,17.584,17.584,0,0,0,2.625-1.125C71.275,4.925,71.4,4.8,71.575,4.725Zm-9.475.55c.65,1.175,1,1.5,1.5,1.5.4,0,.7-.425.7-.95A2.3,2.3,0,0,0,63.325,4.1a3.948,3.948,0,0,0-1.65-.775c-.2,0-.275.125-.275.325a2.223,2.223,0,0,0,.275.85Z" transform="translate(-2.2 -1.3)"/>
</svg>
