<svg xmlns="http://www.w3.org/2000/svg" width="63.5" height="23.125" viewBox="0 0 63.5 23.125">
  <path id="パス_6" data-name="パス 6" d="M13.65,5.475c.15.475.3.95.575,1.625a1.18,1.18,0,0,0,1.025.8.913.913,0,0,0,.925-1,1.361,1.361,0,0,0-.55-1.075A4.457,4.457,0,0,0,14.95,5.3c1.175-.15,2.025-.275,2.3-.325.525-.075.8-.25.8-.6,0-.55-.825-1.1-1.825-1.1a4.07,4.07,0,0,1-1.3.475c-.425.075-1.025.2-1.675.3a5,5,0,0,1,.475-.55c.2-.225.3-.325.3-.6,0-.25-.225-.475-.7-.775a3.879,3.879,0,0,0-1.825-.7c-.275,0-.4.125-.4.325a1.684,1.684,0,0,1,.175.7A2.263,2.263,0,0,1,11,3.525,22.53,22.53,0,0,1,8.475,7.35a.619.619,0,0,0-.175.4.3.3,0,0,0,.325.325.546.546,0,0,0,.35-.125A19.391,19.391,0,0,0,12.1,5.3a1.079,1.079,0,0,0,.75.275Zm8.4-.125a3.832,3.832,0,0,1-.325.7A8.431,8.431,0,0,1,20.95,7.2a.553.553,0,0,0-.15.35c-2.7.275-6.1.575-9.475.825-.275.025-.425.1-.425.25a.626.626,0,0,0,.125.275,5.117,5.117,0,0,0,.75.875A.783.783,0,0,0,12.4,10c1.55-.225,3.3-.425,5.025-.625a6.681,6.681,0,0,1,.175,1.6v.2c-2.15.2-4.675.425-7.05.6q-.375.038-.375.225c0,.225.425.725.875,1.175a8.855,8.855,0,0,1-.625,1.6c-.575.475-.875.7-.875.9,0,.275.175.575.575,1.05.425.525.75.75.95.75a.7.7,0,0,0,.475-.175,2.889,2.889,0,0,1,1.1-.475c1.275-.225,2.65-.425,4.05-.6a29.661,29.661,0,0,1-8.475,5.4.359.359,0,0,0-.25.325.4.4,0,0,0,.425.35l.125-.025a24.6,24.6,0,0,0,9.05-4.075v.775a12.257,12.257,0,0,1-.225,2.975c0,.825.575,2.225,1.45,2.225.6,0,.875-.525.875-1.325l-.05-6.375.225-.225a.484.484,0,0,0,.175-.4c2.2-.225,4.3-.375,6-.475a8.613,8.613,0,0,1-.65,2.6c-.6-.125-1.4-.425-2.2-.675A.488.488,0,0,0,23,17.275c-.15,0-.225.075-.225.25a1.266,1.266,0,0,0,.125.425,13.605,13.605,0,0,0,1.75,2.4,1.558,1.558,0,0,0,.975.425,1.284,1.284,0,0,0,1-.525A4.22,4.22,0,0,0,27.4,19a14.421,14.421,0,0,0,.75-2.525,1.177,1.177,0,0,1,.35-.75.843.843,0,0,0,.225-.5c0-.325-.15-.525-1-1.2a4.28,4.28,0,0,0-1.2-.675,3.306,3.306,0,0,1-1.775.525c-1.525.1-3.3.25-5.15.425l-.025-1.725c1.7-.15,3.3-.275,4.675-.325,1.175-.05,1.475-.225,1.475-.575,0-.25-.225-.525-.575-.775l.525-1.25a1.036,1.036,0,0,1,.375-.45.775.775,0,0,0,.35-.55c0-.275-.15-.575-.675-.975A5.19,5.19,0,0,0,24.3,6.85a2.627,2.627,0,0,1-1.125.45l-1.35.15a21.729,21.729,0,0,0,2.15-1.1.735.735,0,0,0,.425-.575c0-.225-.075-.4-.45-.65,1.35-.15,2.6-.275,3.45-.35.575-.05.85-.275.85-.65,0-.575-1-1.2-2.05-1.2A3.661,3.661,0,0,1,25,3.45c-.6.125-1.975.275-3.425.45a6.533,6.533,0,0,1,.7-.775c.2-.225.3-.325.3-.6,0-.25-.225-.475-.7-.775a3.879,3.879,0,0,0-1.825-.7c-.275,0-.4.125-.4.325a1.684,1.684,0,0,1,.175.7,2.93,2.93,0,0,1-.225,1A13.107,13.107,0,0,1,17.575,6.75a.618.618,0,0,0-.175.375.27.27,0,0,0,.3.275.726.726,0,0,0,.4-.15,17.681,17.681,0,0,0,2.4-2.075,1.2,1.2,0,0,0,.8.275ZM17.6,14.525c-1.725.2-3.45.425-5.125.675a6.216,6.216,0,0,0,.325-1.625,1.222,1.222,0,0,0-.025-.325c1.6-.175,3.225-.35,4.825-.5ZM19.6,11a2.455,2.455,0,0,1,.05-.525,2.23,2.23,0,0,0,.075-.55c0-.25-.2-.475-.55-.725,1.65-.15,3.175-.3,4.4-.375-.125.5-.275,1.125-.45,1.75-.225.05-.525.1-.925.15C21.575,10.8,20.675,10.875,19.6,11ZM45.225,7.3c0-2.725-2.175-4.9-5.6-4.9a6.439,6.439,0,0,0-6,3.4,1.217,1.217,0,0,0-.15.55,1.437,1.437,0,0,0,1.5,1.225,1.182,1.182,0,0,0,1.075-.7A3.838,3.838,0,0,1,39.6,4.6a2.774,2.774,0,0,1,3,2.8c0,2.075-1.35,3.225-3.675,3.225-.325,0-.8-.075-1.225-.075a1.083,1.083,0,0,0-1.125,1.2c0,.8.35,1.3,1.15,1.3.425,0,1.05-.075,1.4-.075,2.675,0,4.175,1.325,4.175,3.55A3.516,3.516,0,0,1,39.45,20.1a4.629,4.629,0,0,1-4.325-2.75A1.2,1.2,0,0,0,34,16.6a1.468,1.468,0,0,0-1.525,1.25,1.3,1.3,0,0,0,.2.625,7.224,7.224,0,0,0,6.775,3.85c4.3,0,6.5-2.85,6.5-5.85a4.774,4.774,0,0,0-3.6-4.875A4.178,4.178,0,0,0,45.225,7.3Zm16.5,1.075c-1.425.15-2.975.3-4.8.475-.35.025-.45.05-.45.2a3.178,3.178,0,0,0,.725,1.175.745.745,0,0,0,.625.375l.425-.05a5.53,5.53,0,0,1,.375,1.375c.35,2.35.6,4.475.875,7.45-1.2.1-2.475.225-3.85.35-.35.025-.45.125-.45.225,0,.125.025.275.475.9.425.575.575.675.9.675A79.732,79.732,0,0,1,67.35,20.75a27.083,27.083,0,0,1,3.025.125c.75,0,1.1-.175,1.1-.6,0-.725-.825-1.325-2.3-1.675a3.473,3.473,0,0,1-1.35.3l-2.3.1c.575-2.175.975-3.875,1.5-6.25a2.953,2.953,0,0,1,.3-.875,1.221,1.221,0,0,0,.2-.575,1.055,1.055,0,0,0-.275-.65,4.775,4.775,0,0,0-.9-.825c.8-.05,1.575-.075,2.35-.1.55,0,.85-.275.85-.6,0-.6-.775-1.35-2.25-1.575A4.489,4.489,0,0,1,65.65,8l-1.825.175L63.9,6.7a3.442,3.442,0,0,1,.275-1.475,1.616,1.616,0,0,0,.275-.775c0-.2-.15-.425-.625-.65a6.787,6.787,0,0,0-2.15-.625c-.3,0-.425.075-.425.25a1.726,1.726,0,0,0,.175.6,5.454,5.454,0,0,1,.3,2.25Zm2.925,1.55a3.742,3.742,0,0,1,.175,1.275,70.21,70.21,0,0,1-.975,7.9c-1.1.05-1.675.075-2.725.175,0-2.55-.05-4.65-.15-6.85-.05-.975-.1-1.225-.575-1.65-.15-.15-.3-.275-.45-.4C61.5,10.2,63.075,10.025,64.65,9.925ZM54.45,11.8a9.111,9.111,0,0,0,.125-.95c0-.35-.175-.65-.65-1.175A24.2,24.2,0,0,0,56.075,6.3,12.362,12.362,0,0,1,57,4.625,1.02,1.02,0,0,0,57.275,4a1.111,1.111,0,0,0-.375-.65,4.548,4.548,0,0,0-2.125-1.2.412.412,0,0,0-.45.35,2.659,2.659,0,0,1,.2,1.025,2.188,2.188,0,0,1-.175.9A28.537,28.537,0,0,1,48.9,13.6a.4.4,0,0,0-.125.3.337.337,0,0,0,.325.35.48.48,0,0,0,.3-.1,18.5,18.5,0,0,0,2.975-2.625c0,2.4-.025,4.15-.125,6.9a15.946,15.946,0,0,1-.325,2.475c.125,1.25.8,2.1,1.35,2.1.8,0,1.05-.45,1.075-1.825Z" transform="translate(-7.975 -1.05)"/>
</svg>
